<svg width="48" height="32" viewBox="0 0 48 32" fill="none" xmlns="http://www.w3.org/2000/svg">
<path d="M29.2986 22.2389H34.7615C35.4907 22.239 36.1899 22.5222 36.7055 23.0262C37.2211 23.5302 37.5108 24.2137 37.5109 24.9265C37.5109 25.6393 37.2213 26.323 36.7057 26.8271C36.1901 27.3312 35.4908 27.6144 34.7615 27.6146H13.2377C12.8766 27.6146 12.519 27.545 12.1854 27.4099C11.8518 27.2748 11.5487 27.0768 11.2934 26.8272C11.0381 26.5776 10.8356 26.2813 10.6974 25.9551C10.5593 25.629 10.4882 25.2795 10.4883 24.9265C10.4883 24.2137 10.7779 23.5301 11.2936 23.0261C11.8092 22.522 12.5085 22.2389 13.2377 22.2389H29.2986Z" stroke="#6870FA" stroke-width="1.10843" stroke-linecap="round"/>
<path d="M14.2715 22.2381V14.0194C14.2715 8.76706 18.6274 4.50903 24.0006 4.50903C29.3737 4.50903 33.7291 8.76706 33.7291 14.0194V22.2381" stroke="#6870FA" stroke-width="1.10843" stroke-miterlimit="10" stroke-linecap="round"/>
<path d="M24.0012 4.50972C24.8992 4.50988 25.7929 4.63155 26.6568 4.87126V3.94399C26.6568 3.25553 26.377 2.59527 25.879 2.10845C25.381 1.62163 24.7055 1.34814 24.0012 1.34814C23.2969 1.34814 22.6215 1.62163 22.1235 2.10845C21.6255 2.59527 21.3457 3.25553 21.3457 3.94399V4.87126C22.2096 4.63148 23.1032 4.50981 24.0012 4.50972Z" stroke="#6870FA" stroke-width="1.10843" stroke-miterlimit="10" stroke-linecap="round"/>
<path d="M19.25 27.6132C19.489 28.6708 20.0902 29.6171 20.9541 30.2954C21.818 30.9737 22.8929 31.3434 24.001 31.3434C25.1091 31.3434 26.184 30.9737 27.0479 30.2954C27.9118 29.6171 28.513 28.6708 28.752 27.6132H19.25Z" stroke="#6870FA" stroke-width="1.10843" stroke-miterlimit="10" stroke-linecap="round"/>
<path d="M44.8965 22.2371C46.2742 19.9065 46.9995 17.2623 46.9995 14.5706C46.9995 11.8789 46.2742 9.23475 44.8965 6.90417" stroke="#6870FA" stroke-width="1.10843" stroke-linecap="round"/>
<path d="M37.7383 18.1955C38.3898 17.0935 38.7328 15.8431 38.7328 14.5703C38.7328 13.2975 38.3898 12.0471 37.7383 10.9451" stroke="#6870FA" stroke-width="1.10843" stroke-linecap="round"/>
<path d="M3.10358 6.90417C1.72555 9.23463 1 11.8789 1 14.5706C1 17.2624 1.72555 19.9066 3.10358 22.2371" stroke="#6870FA" stroke-width="1.10843" stroke-linecap="round"/>
<path d="M10.264 10.9451C9.61254 12.0471 9.26953 13.2975 9.26953 14.5703C9.26953 15.8431 9.61254 17.0935 10.264 18.1955" stroke="#6870FA" stroke-width="1.10843" stroke-linecap="round"/>
</svg>
