<svg width="47" height="33" viewBox="0 0 47 33" fill="none" xmlns="http://www.w3.org/2000/svg">
<path d="M23.312 29.9601L25.1699 31.2525C25.716 31.5936 26.3739 31.7071 27.0027 31.5687C27.6315 31.4303 28.181 31.0511 28.5335 30.5123C28.8859 29.9736 29.0132 29.3181 28.8881 28.6866C28.763 28.055 28.3954 27.4976 27.8642 27.1339L27.707 27.0315M23.3218 2.8602L22.2595 2.15856C21.9464 1.95421 21.5909 1.82376 21.2199 1.77709C20.8489 1.73041 20.4721 1.76873 20.1181 1.88913L13.1186 4.27469L8.40785 1.1875L1 12.5203L6.89373 16.3807M27.0615 20.6957L34.562 25.6072C34.8306 25.7866 35.132 25.9113 35.4489 25.9742C35.7658 26.0371 36.092 26.037 36.4088 25.9739C36.7256 25.9108 37.0269 25.7858 37.2955 25.6063C37.564 25.4267 37.7946 25.196 37.974 24.9273C38.1534 24.6586 38.2781 24.3572 38.341 24.0403C38.404 23.7235 38.4039 23.3973 38.3407 23.0805C38.2776 22.7636 38.1527 22.4623 37.9731 22.1938C37.7935 21.9252 37.5628 21.6946 37.2941 21.5152L36.7497 21.1588C37.3066 21.467 37.9613 21.5471 38.5761 21.3824C39.1909 21.2176 39.7179 20.8209 40.0462 20.2756C40.3745 19.7303 40.4785 19.0789 40.3363 18.4585C40.1941 17.8381 39.8169 17.297 39.284 16.949L39.0833 16.8171" stroke="#6870FA" stroke-miterlimit="10" stroke-linecap="round"/>
<path d="M27.8027 27.088L29.9441 28.459C30.4901 28.8163 31.1556 28.942 31.7943 28.8086C32.433 28.6752 32.9926 28.2935 33.3499 27.7475C33.7071 27.2016 33.8329 26.536 33.6995 25.8973C33.5661 25.2586 33.1844 24.6991 32.6384 24.3418" stroke="#6870FA" stroke-miterlimit="10" stroke-linecap="round"/>
<path d="M29.2229 15.3695C29.048 15.8918 28.7019 16.3397 28.2407 16.6408C27.6946 16.9978 27.0292 17.1234 26.3905 16.99C25.7519 16.8566 25.1924 16.4751 24.8349 15.9294L19.6863 8.05984C19.3293 7.51378 19.2038 6.84833 19.3372 6.20972C19.4706 5.57112 19.8521 5.01159 20.3978 4.65411L24.4981 1.97106C24.8109 1.76695 25.1659 1.63663 25.5364 1.58995C25.9069 1.54328 26.2832 1.58147 26.6367 1.70163L33.6376 4.08719L38.3484 1L45.7577 12.3244L39.0402 16.7194" stroke="#6870FA" stroke-miterlimit="10" stroke-linecap="round"/>
<path d="M27.546 21.4669C27.2549 21.4063 26.9559 21.393 26.6606 21.4276C26.8476 21.1405 26.9798 20.8212 27.0507 20.486C27.1506 20.0086 27.1223 19.5132 26.9687 19.0503C26.815 18.5874 26.5415 18.1734 26.176 17.8505C25.8104 17.5276 25.3659 17.3072 24.8875 17.2118C24.4092 17.1165 23.9141 17.1495 23.4527 17.3076C23.7655 16.8357 23.9059 16.2703 23.8503 15.7069C23.7946 15.1435 23.5464 14.6165 23.1474 14.2149C22.7484 13.8133 22.223 13.5615 21.66 13.5022C21.097 13.4429 20.5307 13.5796 20.0568 13.8892L18.7602 14.7312C19.0642 14.1929 19.1788 13.5683 19.0858 12.9571C18.9927 12.346 18.6973 11.7838 18.2468 11.3605C17.7963 10.9371 17.2168 10.6772 16.6011 10.6223C15.9853 10.5673 15.369 10.7206 14.8507 11.0574L5.53998 17.1546C4.9456 17.5447 4.52446 18.1489 4.36414 18.8415C4.20382 19.5342 4.31666 20.262 4.6792 20.8735C5.04173 21.4851 5.62606 21.9334 6.31066 22.1252C6.99526 22.317 7.72744 22.2375 8.35493 21.9033C8.09589 22.3845 8.00447 22.9383 8.09511 23.4772C8.18574 24.0162 8.45327 24.5096 8.85546 24.8796C9.25766 25.2496 9.77161 25.4752 10.3162 25.5207C10.8608 25.5661 11.4051 25.429 11.8631 25.1308L12.6559 24.613C12.3917 25.0568 12.2576 25.566 12.269 26.0824C12.2805 26.5987 12.4369 27.1015 12.7205 27.5332C13.1224 28.1458 13.7508 28.5739 14.468 28.7236C15.1852 28.8733 15.9325 28.7323 16.5458 28.3317L17.0384 28.0089C16.9907 28.137 16.9522 28.2683 16.9233 28.4018C16.8111 28.9369 16.8603 29.4933 17.0644 30.0004C17.2686 30.5076 17.6187 30.9428 18.0703 31.251C18.5219 31.5591 19.0548 31.7263 19.6015 31.7315C20.1482 31.7366 20.6842 31.5795 21.1415 31.2799L28.4932 26.4878C28.9519 26.189 29.3115 25.7608 29.5265 25.2574C29.7414 24.754 29.802 24.1981 29.7005 23.6602C29.5991 23.1223 29.3401 22.6267 28.9565 22.2362C28.5729 21.8457 28.082 21.5779 27.546 21.4669Z" stroke="#6870FA" stroke-miterlimit="10"/>
<path d="M29.2202 15.3694C29.3376 15.0165 29.3734 14.6415 29.3248 14.2727C29.2762 13.904 29.1444 13.5511 28.9395 13.2407L25.1016 7.375C25.1016 7.375 28.6532 13.9114 34.8585 9.85177" stroke="#6870FA" stroke-miterlimit="10"/>
<path d="M8.35156 21.9034L18.7596 14.7383" stroke="#6870FA" stroke-miterlimit="10" stroke-linecap="round"/>
<path d="M12.6562 24.6117L23.4516 17.3105" stroke="#6870FA" stroke-miterlimit="10" stroke-linecap="round"/>
<path d="M17.041 28.0082L26.6604 21.4297" stroke="#6870FA" stroke-miterlimit="10" stroke-linecap="round"/>
<path d="M39.0291 16.7635L31.5918 11.1504" stroke="#6870FA" stroke-miterlimit="10" stroke-linecap="round"/>
<path d="M36.9241 21.2529L28.7852 16.2012" stroke="#6870FA" stroke-miterlimit="10" stroke-linecap="round"/>
</svg>
