<svg width="46" height="44" viewBox="0 0 46 44" fill="none" xmlns="http://www.w3.org/2000/svg">
<path d="M33.5767 21.7786C33.5767 27.7455 28.7396 32.5825 22.7728 32.5825C16.806 32.5825 11.9689 27.7455 11.9689 21.7786C11.9689 15.8118 16.806 10.9747 22.7728 10.9747C28.7396 10.9747 33.5767 15.8118 33.5767 21.7786Z" stroke="#6870FA" stroke-width="1.0238"/>
<path d="M37.1977 21.7781C37.1977 29.7448 30.7395 36.2031 22.7728 36.2031C14.8061 36.2031 8.34784 29.7448 8.34784 21.7781C8.34784 13.8114 14.8061 7.35309 22.7728 7.35309C30.7395 7.35309 37.1977 13.8114 37.1977 21.7781Z" stroke="#6870FA" stroke-width="1.0238"/>
<path d="M22.7737 4.12571H7.83684V0.504639L1.5 6.84151L7.83684 13.1784V9.55731H14.6263" stroke="#6870FA" stroke-width="1.0238" stroke-linecap="round" stroke-linejoin="round"/>
<path d="M23.2263 39.4309L38.1632 39.4309L38.1632 43.052L44.5 36.7151L38.1632 30.3783L38.1632 33.9993L30.9211 33.9993" stroke="#6870FA" stroke-width="1.0238" stroke-linecap="round" stroke-linejoin="round"/>
<path d="M25.4897 18.1568C24.5849 15.8925 19.6055 15.892 19.6055 19.0621C19.6055 20.8715 20.9638 21.7768 22.3217 21.7768" stroke="#6870FA" stroke-width="1.0238" stroke-linecap="round"/>
<path d="M19.7871 25.2178C20.6919 27.4799 25.4902 27.4795 25.4902 24.3125C25.4902 22.5049 23.6796 21.7786 22.3217 21.7786" stroke="#6870FA" stroke-width="1.0238" stroke-linecap="round"/>
<path d="M22.3223 14.9895L22.3223 16.3474" stroke="#6870FA" stroke-width="1.0238" stroke-linecap="round"/>
<path d="M22.3203 27.0293L22.3203 28.3872" stroke="#6870FA" stroke-width="1.0238" stroke-linecap="round"/>
</svg>
