<svg xmlns="http://www.w3.org/2000/svg" width="110" height="33" viewBox="0 0 110 33" fill="none" class="ms-1 cursor-pointer"><rect x="0.0917969" y="0.138672" width="109.091" height="32" rx="5.6" fill="#0C0D10"></rect><path d="M74.937 15.1864V17.2041H73.5956V18.5273H74.937V23.0232C74.937 24.5584 75.6735 25.1725 77.5266 25.1725C77.8523 25.1725 78.1624 25.136 78.4338 25.0921V23.7835C78.2012 23.8054 78.0539 23.8201 77.798 23.8201C76.9684 23.8201 76.604 23.4545 76.604 22.6211V18.5273H78.4338V17.2041H76.604V15.1864H74.937Z" fill="white"></path><path d="M83.1545 25.2822C85.6201 25.2822 87.132 23.725 87.132 21.1444C87.132 18.5784 85.6123 17.014 83.1545 17.014C80.6888 17.014 79.1691 18.5784 79.1691 21.1444C79.1691 23.725 80.6811 25.2822 83.1545 25.2822ZM83.1545 23.8859C81.7046 23.8859 80.8904 22.8843 80.8904 21.1444C80.8904 19.4192 81.7046 18.4103 83.1545 18.4103C84.5966 18.4103 85.4185 19.4192 85.4185 21.1444C85.4185 22.877 84.5966 23.8859 83.1545 23.8859Z" fill="white"></path><path d="M88.4256 25.1286H90.0926V20.428C90.0926 19.3095 90.9843 18.5565 92.2481 18.5565C92.5428 18.5565 93.039 18.6077 93.1786 18.6516V17.1017C93.0002 17.0579 92.6823 17.0359 92.4342 17.0359C91.3332 17.0359 90.395 17.6062 90.1547 18.3884H90.0306V17.1675H88.4256V25.1286Z" fill="white"></path><path d="M97.3177 18.3518C98.5505 18.3518 99.3569 19.1633 99.3957 20.4134H95.1312C95.2243 19.1706 96.0849 18.3518 97.3177 18.3518ZM99.3879 22.9794C99.0778 23.6007 98.3877 23.9443 97.3797 23.9443C96.0461 23.9443 95.1855 23.0598 95.1312 21.6635V21.5757H101.094V21.0275C101.094 18.5273 99.6748 17.014 97.3255 17.014C94.9451 17.014 93.4332 18.6296 93.4332 21.1737C93.4332 23.7177 94.9141 25.2822 97.3332 25.2822C99.2638 25.2822 100.613 24.4049 100.993 22.9794H99.3879Z" fill="white"></path><path d="M64.0049 22.1887C64.1335 24.1436 65.8613 25.3938 68.433 25.3938C71.1814 25.3938 72.9011 24.083 72.9011 21.9917C72.9011 20.3475 71.9207 19.4382 69.542 18.9154L68.2642 18.6199C66.7534 18.2865 66.1426 17.8395 66.1426 17.059C66.1426 16.074 67.0909 15.43 68.5133 15.43C69.8634 15.43 70.7956 16.0589 70.9644 17.0666H72.7163C72.6118 15.2254 70.8921 13.9297 68.5374 13.9297C66.006 13.9297 64.3184 15.2254 64.3184 17.1727C64.3184 18.779 65.2747 19.7337 67.3722 20.1959L68.8669 20.5369C70.4019 20.8779 71.0769 21.378 71.0769 22.2115C71.0769 23.1813 70.0161 23.886 68.5696 23.886C67.0186 23.886 65.9417 23.2268 65.789 22.1887H64.0049Z" fill="white"></path><path d="M46.7364 17.0359C45.5889 17.0359 44.5964 17.5769 44.0847 18.4834H43.9606V17.1675H42.3557V27.775H44.0227V23.9224H44.1545C44.5964 24.7631 45.5501 25.2602 46.7519 25.2602C48.8841 25.2602 50.241 23.6739 50.241 21.1444C50.241 18.615 48.8841 17.0359 46.7364 17.0359ZM46.2634 23.8493C44.8678 23.8493 43.9917 22.8112 43.9917 21.1517C43.9917 19.4849 44.8678 18.4469 46.2712 18.4469C47.6823 18.4469 48.5275 19.463 48.5275 21.1444C48.5275 22.8331 47.6823 23.8493 46.2634 23.8493Z" fill="white"></path><path d="M56.0742 17.0359C54.9266 17.0359 53.9342 17.5769 53.4224 18.4834H53.2984V17.1675H51.6934V27.775H53.3604V23.9224H53.4922C53.9342 24.7631 54.8879 25.2602 56.0897 25.2602C58.2219 25.2602 59.5788 23.6739 59.5788 21.1444C59.5788 18.615 58.2219 17.0359 56.0742 17.0359ZM55.6012 23.8493C54.2055 23.8493 53.3294 22.8112 53.3294 21.1517C53.3294 19.4849 54.2055 18.4469 55.6089 18.4469C57.0201 18.4469 57.8652 19.463 57.8652 21.1444C57.8652 22.8331 57.0201 23.8493 55.6012 23.8493Z" fill="white"></path><path d="M39.3647 25.1286H41.2774L37.0905 14.1949H35.1537L30.9668 25.1286H32.8152L33.884 22.2266H38.304L39.3647 25.1286ZM36.0297 16.1801H36.1663L37.8459 20.8021H34.3421L36.0297 16.1801Z" fill="white"></path><path d="M32.084 5.948V11.2225H34.1038C35.7708 11.2225 36.7361 10.2539 36.7361 8.56881C36.7361 6.90933 35.763 5.948 34.1038 5.948H32.084ZM32.9524 6.69367H34.0069C35.166 6.69367 35.8522 7.38816 35.8522 8.57977C35.8522 9.78966 35.1776 10.4768 34.0069 10.4768H32.9524V6.69367Z" fill="white"></path><path d="M39.6925 11.2993C40.9253 11.2993 41.6813 10.5207 41.6813 9.23041C41.6813 7.94742 40.9215 7.16519 39.6925 7.16519C38.4597 7.16519 37.6999 7.94742 37.6999 9.23041C37.6999 10.5207 38.4558 11.2993 39.6925 11.2993ZM39.6925 10.6011C38.9676 10.6011 38.5605 10.1004 38.5605 9.23041C38.5605 8.36777 38.9676 7.86335 39.6925 7.86335C40.4136 7.86335 40.8246 8.36777 40.8246 9.23041C40.8246 10.0967 40.4136 10.6011 39.6925 10.6011Z" fill="white"></path><path d="M48.1191 7.24195H47.2856L46.5335 10.2795H46.4676L45.5992 7.24195H44.8006L43.9322 10.2795H43.8701L43.1142 7.24195H42.269L43.4321 11.2225H44.2888L45.1572 8.29101H45.2231L46.0954 11.2225H46.9599L48.1191 7.24195Z" fill="white"></path><path d="M49.079 11.2225H49.9125V8.89412C49.9125 8.27273 50.304 7.88528 50.9204 7.88528C51.5368 7.88528 51.8315 8.20328 51.8315 8.84295V11.2225H52.665V8.64557C52.665 7.69886 52.1455 7.16519 51.2034 7.16519C50.5676 7.16519 50.149 7.43203 49.9435 7.87431H49.8815V7.24195H49.079V11.2225Z" fill="white"></path><path d="M53.9777 11.2225H54.8112V5.68848H53.9777V11.2225Z" fill="white"></path><path d="M57.9459 11.2993C59.1787 11.2993 59.9347 10.5207 59.9347 9.23041C59.9347 7.94742 59.1749 7.16519 57.9459 7.16519C56.7131 7.16519 55.9533 7.94742 55.9533 9.23041C55.9533 10.5207 56.7092 11.2993 57.9459 11.2993ZM57.9459 10.6011C57.221 10.6011 56.8139 10.1004 56.8139 9.23041C56.8139 8.36777 57.221 7.86335 57.9459 7.86335C58.667 7.86335 59.0779 8.36777 59.0779 9.23041C59.0779 10.0967 58.667 10.6011 57.9459 10.6011Z" fill="white"></path><path d="M62.4182 10.6267C61.9646 10.6267 61.6351 10.4184 61.6351 10.0601C61.6351 9.70924 61.8987 9.52282 62.4802 9.48627L63.5114 9.42413V9.75676C63.5114 10.2502 63.0462 10.6267 62.4182 10.6267ZM62.2049 11.2883C62.7593 11.2883 63.2207 11.0617 63.4726 10.6633H63.5385V11.2225H64.341V8.50301C64.341 7.66231 63.744 7.16519 62.6857 7.16519C61.7281 7.16519 61.0458 7.60382 60.9605 8.28735H61.7669C61.8599 8.0059 62.1817 7.84507 62.6469 7.84507C63.2168 7.84507 63.5114 8.08266 63.5114 8.50301V8.84661L62.3678 8.90874C61.3637 8.96723 60.7977 9.38027 60.7977 10.0967C60.7977 10.8241 61.3908 11.2883 62.2049 11.2883Z" fill="white"></path><path d="M67.1695 11.2883C67.751 11.2883 68.2434 11.0288 68.4954 10.5938H68.5613V11.2225H69.3599V5.68848H68.5264V7.87431H68.4644C68.2356 7.43568 67.7472 7.17616 67.1695 7.17616C66.1034 7.17616 65.4172 7.973 65.4172 9.23041C65.4172 10.4915 66.0957 11.2883 67.1695 11.2883ZM67.406 7.88162C68.1038 7.88162 68.5419 8.40432 68.5419 9.23406C68.5419 10.0675 68.1077 10.5828 67.406 10.5828C66.7004 10.5828 66.2779 10.0748 66.2779 9.23041C66.2779 8.39336 66.7043 7.88162 67.406 7.88162Z" fill="white"></path><path d="M74.7649 11.2993C75.9977 11.2993 76.7537 10.5207 76.7537 9.23041C76.7537 7.94742 75.9938 7.16519 74.7649 7.16519C73.5321 7.16519 72.7722 7.94742 72.7722 9.23041C72.7722 10.5207 73.5282 11.2993 74.7649 11.2993ZM74.7649 10.6011C74.0399 10.6011 73.6329 10.1004 73.6329 9.23041C73.6329 8.36777 74.0399 7.86335 74.7649 7.86335C75.486 7.86335 75.8969 8.36777 75.8969 9.23041C75.8969 10.0967 75.486 10.6011 74.7649 10.6011Z" fill="white"></path><path d="M77.857 11.2225H78.6905V8.89412C78.6905 8.27273 79.0821 7.88528 79.6985 7.88528C80.3149 7.88528 80.6095 8.20328 80.6095 8.84295V11.2225H81.443V8.64557C81.443 7.69886 80.9235 7.16519 79.9815 7.16519C79.3457 7.16519 78.927 7.43203 78.7215 7.87431H78.6595V7.24195H77.857V11.2225Z" fill="white"></path><path d="M85.2818 6.25138V7.26023H84.6111V7.92183H85.2818V10.1698C85.2818 10.9374 85.6501 11.2444 86.5766 11.2444C86.7395 11.2444 86.8945 11.2262 87.0302 11.2042V10.5499C86.9139 10.5609 86.8403 10.5682 86.7123 10.5682C86.2975 10.5682 86.1153 10.3855 86.1153 9.96876V7.92183H87.0302V7.26023H86.1153V6.25138H85.2818Z" fill="white"></path><path d="M88.1491 11.2225H88.9826V8.89778C88.9826 8.29466 89.3625 7.88893 90.0448 7.88893C90.6341 7.88893 90.9481 8.21059 90.9481 8.84661V11.2225H91.7816V8.65288C91.7816 7.70617 91.2272 7.16885 90.3278 7.16885C89.692 7.16885 89.2462 7.43568 89.0407 7.88162H88.9748V5.68848H88.1491V11.2225Z" fill="white"></path><path d="M94.7884 7.8341C95.4048 7.8341 95.808 8.23984 95.8274 8.86488H93.6952C93.7417 8.24349 94.172 7.8341 94.7884 7.8341ZM95.8235 10.1479C95.6684 10.4586 95.3234 10.6304 94.8194 10.6304C94.1526 10.6304 93.7223 10.1881 93.6952 9.48993V9.44606H96.6764V9.17192C96.6764 7.92183 95.967 7.16519 94.7923 7.16519C93.6021 7.16519 92.8462 7.973 92.8462 9.24503C92.8462 10.5171 93.5866 11.2993 94.7962 11.2993C95.7615 11.2993 96.4361 10.8606 96.626 10.1479H95.8235Z" fill="white"></path><path d="M21.9214 16.1558C21.9416 14.6754 22.7849 13.2745 24.1226 12.4991C23.2787 11.3627 21.8652 10.6422 20.3946 10.5989C18.826 10.4436 17.3054 11.4838 16.5061 11.4838C15.6913 11.4838 14.4607 10.6143 13.1355 10.64C11.4082 10.6926 9.79784 11.6185 8.95746 13.0424C7.15096 15.9914 8.49844 20.3253 10.2289 22.709C11.0947 23.8762 12.1066 25.1801 13.4306 25.1338C14.7262 25.0832 15.2101 24.3549 16.774 24.3549C18.3234 24.3549 18.7774 25.1338 20.1283 25.1044C21.5185 25.0832 22.3944 23.932 23.2299 22.7537C23.8519 21.922 24.3306 21.0028 24.6482 20.0302C23.0144 19.3786 21.9233 17.8284 21.9214 16.1558Z" fill="white"></path><path d="M19.3698 9.03121C20.1278 8.17323 20.5013 7.07044 20.4109 5.95703C19.2528 6.07172 18.183 6.59358 17.4147 7.41865C16.6635 8.22478 16.2725 9.30817 16.3464 10.379C17.5049 10.3903 18.6439 9.88254 19.3698 9.03121Z" fill="white"></path></svg>