<svg width="24" height="24" viewBox="0 0 24 24" fill="none" xmlns="http://www.w3.org/2000/svg"><rect width="24" height="24" rx="12" fill="#004593"></rect><path d="M16.6386 7.83602C18.1358 10.0241 18.8844 12.48 18.6122 15.3156C18.6122 15.3156 18.6122 15.3379 18.5895 15.3379C17.5914 16.0747 16.4571 16.6328 15.2548 16.9901C15.2321 17.0124 15.2321 16.9901 15.2094 16.9901C14.9599 16.6328 14.7331 16.2756 14.5289 15.8961C14.5289 15.8737 14.5289 15.8514 14.5516 15.8291C14.9145 15.6951 15.2548 15.5388 15.5951 15.3379C15.6178 15.3379 15.6178 15.2932 15.5951 15.2709C15.527 15.2262 15.459 15.1816 15.3909 15.1146C15.3682 15.1146 15.3682 15.1146 15.3455 15.1146C13.1905 16.097 10.8312 16.097 8.65343 15.1146C8.63075 15.1146 8.60806 15.1146 8.60806 15.1146C8.54001 15.1816 8.47195 15.2262 8.4039 15.2709C8.35853 15.2932 8.38121 15.3379 8.4039 15.3379C8.72149 15.5388 9.08445 15.6951 9.44741 15.8291C9.4701 15.8514 9.4701 15.8737 9.4701 15.8961C9.26593 16.2756 9.03908 16.6328 8.78954 16.9901C8.76686 16.9901 8.74417 17.0124 8.74417 16.9901C7.54186 16.6328 6.40761 16.0747 5.40946 15.3379C5.38677 15.3379 5.38677 15.3156 5.38677 15.3156C5.15992 12.8596 5.63631 10.3813 7.36038 7.83602C7.36038 7.83602 7.36038 7.83602 7.38307 7.83602C8.2451 7.43414 9.15251 7.16621 10.0826 7.00992C10.1053 6.9876 10.128 7.00992 10.128 7.00992C10.2641 7.23319 10.3775 7.47879 10.4682 7.70206C11.4891 7.54577 12.5099 7.54577 13.5307 7.70206C13.6215 7.47879 13.7349 7.23319 13.871 7.00992C13.871 7.00992 13.8937 6.9876 13.9164 7.00992C14.8465 7.16621 15.7539 7.43414 16.6159 7.83602C16.6386 7.83602 16.6386 7.83602 16.6386 7.83602ZM9.78769 13.8196C10.4456 13.8196 10.99 13.2168 10.99 12.5024C10.99 11.7656 10.4682 11.1851 9.78769 11.1851C9.12982 11.1851 8.58538 11.7656 8.58538 12.5024C8.58538 13.2168 9.12982 13.8196 9.78769 13.8196ZM14.2113 13.8196C14.8918 13.8196 15.4136 13.2168 15.4136 12.5024C15.4363 11.7656 14.8918 11.1851 14.2113 11.1851C13.5534 11.1851 13.0317 11.7656 13.0317 12.5024C13.0317 13.2168 13.5534 13.8196 14.2113 13.8196Z" fill="#E0E1FF"></path></svg>