<svg width="24" height="24" viewBox="0 0 24 24" fill="none" xmlns="http://www.w3.org/2000/svg"><path d="M12.0094 24.0187C18.6419 24.0187 24.0187 18.6419 24.0187 12.0094C24.0187 5.37677 18.6419 0 12.0094 0C5.37677 0 0 5.37677 0 12.0094C0 18.6419 5.37677 24.0187 12.0094 24.0187Z" fill="#004593"></path><path fill-rule="evenodd" clip-rule="evenodd" d="M5.42498 11.8783C8.92303 10.3444 11.2613 9.35296 12.4398 8.8666C15.7695 7.48235 16.4616 7.23917 16.9106 7.22046C17.0041 7.22046 17.2286 7.23917 17.3782 7.3514C17.4905 7.44493 17.5279 7.57588 17.5466 7.66941C17.5653 7.76294 17.584 7.96871 17.5653 8.13706C17.3782 10.0264 16.6113 14.6468 16.1997 16.7606C16.0314 17.6585 15.6947 17.9578 15.3767 17.9952C14.6845 18.0513 14.142 17.5276 13.4686 17.0973C12.4211 16.4052 11.8225 15.9749 10.7936 15.3015C9.61516 14.5159 10.3821 14.0856 11.0555 13.3935C11.2239 13.2064 14.3104 10.4192 14.3665 10.1573C14.3665 10.1199 14.3852 10.0077 14.3104 9.95156C14.2356 9.89544 14.142 9.91415 14.0672 9.93285C13.955 9.95156 12.2714 11.0739 8.99786 13.2813C8.5115 13.618 8.08126 13.7676 7.68843 13.7676C7.25818 13.7676 6.43511 13.5244 5.81781 13.3187C5.06956 13.0755 4.47097 12.9445 4.52709 12.533C4.5645 12.3272 4.8638 12.1028 5.42498 11.8783Z" fill="#E0E1FF"></path></svg>